# xmcd
#
# Track frame offsets: 
#        150
#        7000
#        28947
#        49050
#        69625
#        94000
#        117755
#        142490
#        162832
#        180067
#        196190
#        211390
#
# Disc length: 3179 seconds
#
# Revision: 3
# Processed by: cddbd v1.5PL3 Copyright (c) Steve Scherf et al.
# Submitted via: ExactAudioCopy v0.95a5
#
DISCID=a50c690c
DTITLE=Cowboy Junkies - The Trinity Session
DYEAR=1988
DGENRE=Folk/Rock
TTITLE0=Mining for Gold
TTITLE1=Misguided Angel
TTITLE2=Blue Moon Revisited (Song for Elvis)
TTITLE3=I Don't Get It
TTITLE4=I'm So Lonesome I Could Cry
TTITLE5=To Love Is to Bury
TTITLE6=200 More Miles
TTITLE7=Dreaming My Dreams with You
TTITLE8=Working on a Building
TTITLE9=Sweet Jane
TTITLE10=Postcard Blues
TTITLE11=Walking after Midnight
EXTD=
EXTT0=
EXTT1=
EXTT2=
EXTT3=
EXTT4=
EXTT5=
EXTT6=
EXTT7=
EXTT8=
EXTT9=
EXTT10=
EXTT11=
PLAYORDER=
